{
    "asset" : {
        "generator" : "Khronos glTF Blender I/O v3.2.43",
        "version" : "2.0"
    },
    "scene" : 0,
    "scenes" : [
        {
            "name" : "Scene",
            "nodes" : [
                0
            ]
        }
    ],
    "nodes" : [
        {
            "mesh" : 0,
            "name" : "Cube",
            "scale" : [
                0.44740068912506104,
                0.44740068912506104,
                0.2186257690191269
            ],
            "translation" : [
                -0.8900847434997559,
                -0.25511980056762695,
                0
            ]
        }
    ],
    "materials" : [
        {
            "doubleSided" : true,
            "name" : "back",
            "pbrMetallicRoughness" : {
                "baseColorFactor" : [
                    1,
                    1,
                    1,
                    0.19999998807907104
                ],
                "baseColorTexture" : {
                    "index" : 0
                },
                "metallicFactor" : 0,
                "roughnessFactor" : 0.5
            }
        },
        {
            "doubleSided" : true,
            "name" : "side",
            "pbrMetallicRoughness" : {
                "baseColorFactor" : [
                    1,
                    1,
                    1,
                    0.19999998807907104
                ],
                "baseColorTexture" : {
                    "index" : 1
                },
                "metallicFactor" : 0,
                "roughnessFactor" : 0.5
            }
        },
        {
            "doubleSided" : true,
            "name" : "screen",
            "pbrMetallicRoughness" : {
                "baseColorFactor" : [
                    0.030620092526078224,
                    0.030813977122306824,
                    0.046280983835458755,
                    0.19999998807907104
                ],
                "metallicFactor" : 0,
                "roughnessFactor" : 0.25
            }
        }
    ],
    "meshes" : [
        {
            "name" : "Cube.001",
            "primitives" : [
                {
                    "attributes" : {
                        "POSITION" : 0,
                        "NORMAL" : 1,
                        "TEXCOORD_0" : 2
                    },
                    "indices" : 3,
                    "material" : 0
                },
                {
                    "attributes" : {
                        "POSITION" : 4,
                        "NORMAL" : 5,
                        "TEXCOORD_0" : 6
                    },
                    "indices" : 7,
                    "material" : 1
                },
                {
                    "attributes" : {
                        "POSITION" : 8,
                        "NORMAL" : 9,
                        "TEXCOORD_0" : 10
                    },
                    "indices" : 11,
                    "material" : 2
                }
            ]
        }
    ],
    "textures" : [
        {
            "sampler" : 0,
            "source" : 0
        },
        {
            "sampler" : 0,
            "source" : 1
        }
    ],
    "images" : [
        {
            "bufferView" : 4,
            "mimeType" : "image/png",
            "name" : "Comp 1_00001"
        },
        {
            "bufferView" : 9,
            "mimeType" : "image/jpeg",
            "name" : "nokia"
        }
    ],
    "accessors" : [
        {
            "bufferView" : 0,
            "componentType" : 5126,
            "count" : 2012,
            "max" : [
                1.2500419616699219,
                2.937201738357544,
                0.9275739789009094
            ],
            "min" : [
                -1.6150338649749756,
                0.8559543490409851,
                0.8121558427810669
            ],
            "type" : "VEC3"
        },
        {
            "bufferView" : 1,
            "componentType" : 5126,
            "count" : 2012,
            "type" : "VEC3"
        },
        {
            "bufferView" : 2,
            "componentType" : 5126,
            "count" : 2012,
            "type" : "VEC2"
        },
        {
            "bufferView" : 3,
            "componentType" : 5123,
            "count" : 11094,
            "type" : "SCALAR"
        },
        {
            "bufferView" : 5,
            "componentType" : 5126,
            "count" : 1631,
            "max" : [
                1.8352489471435547,
                5.3424224853515625,
                0.9999996423721313
            ],
            "min" : [
                -2.160724401473999,
                -4.095212936401367,
                -1.0633267164230347
            ],
            "type" : "VEC3"
        },
        {
            "bufferView" : 6,
            "componentType" : 5126,
            "count" : 1631,
            "type" : "VEC3"
        },
        {
            "bufferView" : 7,
            "componentType" : 5126,
            "count" : 1631,
            "type" : "VEC2"
        },
        {
            "bufferView" : 8,
            "componentType" : 5123,
            "count" : 6468,
            "type" : "SCALAR"
        },
        {
            "bufferView" : 10,
            "componentType" : 5126,
            "count" : 677,
            "max" : [
                1.86678946018219,
                5.429647922515869,
                0.9999995827674866
            ],
            "min" : [
                -2.192507266998291,
                -4.161408424377441,
                -1.0000004768371582
            ],
            "type" : "VEC3"
        },
        {
            "bufferView" : 11,
            "componentType" : 5126,
            "count" : 677,
            "type" : "VEC3"
        },
        {
            "bufferView" : 12,
            "componentType" : 5126,
            "count" : 677,
            "type" : "VEC2"
        },
        {
            "bufferView" : 13,
            "componentType" : 5123,
            "count" : 2100,
            "type" : "SCALAR"
        }
    ],
    "bufferViews" : [
        {
            "buffer" : 0,
            "byteLength" : 24144,
            "byteOffset" : 0
        },
        {
            "buffer" : 0,
            "byteLength" : 24144,
            "byteOffset" : 24144
        },
        {
            "buffer" : 0,
            "byteLength" : 16096,
            "byteOffset" : 48288
        },
        {
            "buffer" : 0,
            "byteLength" : 22188,
            "byteOffset" : 64384
        },
        {
            "buffer" : 0,
            "byteLength" : 723698,
            "byteOffset" : 86572
        },
        {
            "buffer" : 0,
            "byteLength" : 19572,
            "byteOffset" : 810272
        },
        {
            "buffer" : 0,
            "byteLength" : 19572,
            "byteOffset" : 829844
        },
        {
            "buffer" : 0,
            "byteLength" : 13048,
            "byteOffset" : 849416
        },
        {
            "buffer" : 0,
            "byteLength" : 12936,
            "byteOffset" : 862464
        },
        {
            "buffer" : 0,
            "byteLength" : 336402,
            "byteOffset" : 875400
        },
        {
            "buffer" : 0,
            "byteLength" : 8124,
            "byteOffset" : 1211804
        },
        {
            "buffer" : 0,
            "byteLength" : 8124,
            "byteOffset" : 1219928
        },
        {
            "buffer" : 0,
            "byteLength" : 5416,
            "byteOffset" : 1228052
        },
        {
            "buffer" : 0,
            "byteLength" : 4200,
            "byteOffset" : 1233468
        }
    ],
    "samplers" : [
        {
            "magFilter" : 9729,
            "minFilter" : 9987
        }
    ],
    "buffers" : [
        {
            "byteLength" : 1237668,
            "uri" : "data:application/octet-stream;base64,"
        }
    ]
}
